<svg width="109" height="27" viewBox="0 0 109 27" fill="none" xmlns="http://www.w3.org/2000/svg">
<path d="M8.15409 2.06531C8.47072 1.5844 9.11283 1.45411 9.58828 1.77435C10.0637 2.09462 10.1925 2.74414 9.87593 3.22508C8.49466 5.32314 5.83319 10.4528 3.99586 15.3379C3.0762 17.7831 2.38885 20.1004 2.15482 21.9109C2.03738 22.8195 2.04366 23.5329 2.15218 24.0445C2.25887 24.5473 2.43637 24.7435 2.58109 24.8298C2.69337 24.8968 2.84731 24.9417 3.18513 24.7874C3.56056 24.6159 4.03838 24.2436 4.60969 23.6369C5.74534 22.4309 6.98404 20.5931 8.24841 18.6246C9.48484 16.6997 10.7481 14.6454 11.8725 13.1587C12.433 12.4177 13.0082 11.7497 13.5771 11.2954C14.0816 10.8925 14.8592 10.4381 15.7187 10.698L15.8022 10.7254L15.8743 10.7524C16.6074 11.0431 16.984 11.6736 17.1543 12.2888C17.3224 12.8963 17.329 13.6023 17.2754 14.2921C17.1676 15.679 16.7757 17.4076 16.4196 19.0208C16.0511 20.6898 15.7187 22.2441 15.6534 23.4407C15.6207 24.0418 15.6629 24.4531 15.7448 24.7044C15.7828 24.821 15.8196 24.8721 15.8348 24.8896C15.8409 24.8966 15.8456 24.901 15.8534 24.9051C15.8801 24.9026 16.0651 24.8897 16.4865 24.5898C16.98 24.2386 17.588 23.6393 18.2894 22.8052C19.6836 21.1469 21.2912 18.7493 22.904 16.1196C26.126 10.866 29.2598 4.86908 30.6281 2.38064C30.9057 1.87569 31.5355 1.69395 32.0348 1.97477C32.534 2.25563 32.7135 2.8927 32.4358 3.39768C31.0989 5.82925 27.9186 11.9127 24.6619 17.2228C23.0353 19.8749 21.3624 22.3801 19.8653 24.1608C19.121 25.0461 18.3806 25.8003 17.6768 26.3012C17.026 26.7643 16.1286 27.2083 15.2091 26.895C14.4301 26.6296 13.9928 26.0123 13.7801 25.3594C13.5788 24.7418 13.5497 24.0248 13.5878 23.3255C13.6644 21.9211 14.0431 20.1842 14.4006 18.5647C14.7705 16.8895 15.1194 15.3321 15.213 14.1281C15.2601 13.5226 15.2325 13.1068 15.1622 12.853C15.1507 12.8114 15.1391 12.7789 15.129 12.754C15.0703 12.7846 14.982 12.8395 14.859 12.9377C14.4972 13.2267 14.0476 13.7267 13.5156 14.4301C12.455 15.8324 11.2622 17.7732 9.98316 19.7646C8.73204 21.7124 7.39564 23.7122 6.10761 25.0801C5.4671 25.7603 4.77084 26.359 4.03657 26.6945C3.26468 27.0471 2.37307 27.135 1.53057 26.6327C0.720563 26.1497 0.309796 25.3335 0.129476 24.4835C-0.0490013 23.6422 -0.0286402 22.6621 0.103524 21.6396C0.368739 19.5878 1.12292 17.0917 2.06236 14.5939C3.94327 9.59294 6.67101 4.318 8.15409 2.06531Z" fill="#FFDA0A"/>
<path fill-rule="evenodd" clip-rule="evenodd" d="M32.1995 8.44923C33.4186 7.20575 35.1067 6.3346 36.8725 7.1821C38.1289 7.78509 38.6622 8.99072 38.5925 10.2856C38.5259 11.5227 37.9267 12.8701 36.9549 14.1357C35.5792 15.9272 33.3537 17.6953 30.332 18.9618C30.3332 19.1752 30.3412 19.3843 30.3564 19.5881C30.4771 21.2015 31.0193 22.2659 31.8761 22.7631C33.0055 23.4184 34.5747 23.3426 36.4385 22.5488C36.6484 22.4594 36.8594 22.3616 37.071 22.2566C37.0631 22.1355 37.0578 22.0142 37.0548 21.8932C37.0077 19.9783 37.5251 17.7929 38.3322 15.8274C39.1381 13.8651 40.2807 12.0053 41.5804 10.7873C42.8483 9.59917 44.5964 8.76241 46.313 9.76713C47.1837 10.2767 47.6373 11.0926 47.7351 12.0148C47.8271 12.8826 47.6061 13.8145 47.2408 14.7066C46.5061 16.5002 45.0389 18.4921 43.2816 20.2359C42.1039 21.4045 40.7597 22.4971 39.3588 23.3659C39.5811 24.0314 39.9493 24.468 40.4235 24.7023C40.9872 24.9809 41.7997 25.0527 42.9108 24.4034C44.0604 23.7316 45.4937 22.2984 47.1006 19.6172C47.3967 19.123 48.0328 18.9653 48.5213 19.2649C49.0097 19.5645 49.1657 20.2078 48.8695 20.7019C47.1724 23.5337 45.5178 25.2966 43.9456 26.2153C42.335 27.1565 40.7915 27.2132 39.5153 26.5825C38.5263 26.0938 37.8941 25.2923 37.5181 24.3553C37.4258 24.3971 37.3335 24.4381 37.2412 24.4774C35.1255 25.3784 32.7945 25.7084 30.8467 24.5782C29.134 23.5843 28.438 21.6784 28.2935 19.7459C28.2923 19.7303 28.2915 19.7145 28.2904 19.6989C27.577 19.9178 26.8283 20.1098 26.0447 20.2697C25.4847 20.3839 24.9391 20.0172 24.8262 19.4508C24.7133 18.8844 25.0757 18.3327 25.6356 18.2185C26.6019 18.0214 27.5035 17.773 28.3407 17.4853C28.4791 16.1792 28.7952 14.8412 29.2319 13.5879C29.9252 11.5986 30.9611 9.71237 32.1995 8.44923ZM45.277 11.5783C44.7656 11.279 44.0301 11.3444 42.9863 12.3225C41.9745 13.2707 40.9773 14.841 40.2426 16.6302C39.6371 18.1047 39.2427 19.6486 39.1447 21.0072C40.0832 20.3452 40.9964 19.5722 41.833 18.7421C43.4717 17.116 44.7374 15.3517 45.3296 13.9057C45.6277 13.178 45.7186 12.619 45.6782 12.238C45.6436 11.9116 45.5203 11.7207 45.277 11.5783ZM35.9858 9.07266C35.4041 8.79344 34.6425 8.92911 33.6683 9.92276C32.7134 10.8968 31.8122 12.478 31.183 14.2834C30.9218 15.0331 30.7141 15.8024 30.5693 16.5599C32.7546 15.4799 34.3372 14.1334 35.3212 12.852C36.1366 11.7902 36.4908 10.842 36.5269 10.1717C36.5599 9.55909 36.3451 9.24513 35.9858 9.07266Z" fill="#FFDA0A"/>
<path fill-rule="evenodd" clip-rule="evenodd" d="M54.0242 0.711253C54.2072 0.163913 54.7943 -0.12969 55.3355 0.0554442C55.8766 0.24061 56.1668 0.834479 55.9838 1.38184C54.3166 6.36771 52.8891 13.324 51.8922 20.9467C52.973 19.1117 54.1825 17.2052 55.4214 15.5974C56.5871 14.0846 57.8546 12.7337 59.142 11.9842C59.7954 11.6038 60.5152 11.342 61.2695 11.3447C62.0497 11.3475 62.7761 11.6338 63.4055 12.1906C64.1964 12.8904 64.4643 13.9233 64.3696 14.9168C64.2746 15.9121 63.819 16.9446 63.06 17.8486C61.7089 19.4577 59.383 20.6921 56.1347 20.7777C56.3799 21.7751 56.6247 22.6873 56.9849 23.4431C57.2326 23.9629 57.4997 24.3251 57.7888 24.5552C58.0581 24.7696 58.3911 24.9064 58.8657 24.9064C60.1588 24.9064 61.083 24.5695 62.1295 23.8008C62.5917 23.4614 63.2386 23.5652 63.5742 24.0327C63.9098 24.5003 63.8072 25.1546 63.345 25.4941C61.9793 26.4972 60.6358 26.9989 58.8657 26.9989C57.938 26.9989 57.1519 26.7111 56.5092 26.1994C55.8863 25.7035 55.4485 25.0378 55.1215 24.3516C54.6799 23.425 54.377 22.3074 54.1199 21.2619C53.0012 23.1167 51.9859 24.9767 51.1749 26.4593C50.9369 26.8942 50.4292 27.0998 49.9603 26.951C49.4914 26.8022 49.1907 26.3402 49.2409 25.8458C50.2222 16.1895 51.9207 7.002 54.0242 0.711253ZM61.2622 13.4373C60.9875 13.4363 60.6286 13.5332 60.1739 13.7979C59.2451 14.3386 58.1782 15.4234 57.053 16.8837C56.6163 17.4505 56.1822 18.0585 55.7552 18.69C58.6917 18.6955 60.5347 17.6236 61.4833 16.4939C62.0132 15.8628 62.2622 15.2216 62.3105 14.7157C62.3589 14.2079 62.2088 13.9117 62.0437 13.7656C61.7637 13.5179 61.5108 13.4382 61.2622 13.4373Z" fill="#FFDA0A"/>
<path d="M78.8651 11.2705C79.4361 11.2547 79.9117 11.71 79.9274 12.2876L78.8935 12.3163C79.9275 12.2875 79.9276 12.288 79.9276 12.288V12.2902C79.9276 12.2915 79.9277 12.2932 79.9277 12.2953C79.9278 12.2994 79.9279 12.3052 79.928 12.3126C79.9283 12.3273 79.9288 12.3483 79.9293 12.3754C79.9301 12.4297 79.931 12.5084 79.9314 12.61C79.9323 12.8132 79.931 13.1083 79.9227 13.483C79.9062 14.2323 79.8619 15.3016 79.7504 16.5929C79.6986 17.1928 79.6319 17.8419 79.547 18.53C79.9314 17.8744 80.3275 17.2304 80.7291 16.6149C81.685 15.1502 82.702 13.8006 83.6977 12.8393C84.1954 12.3589 84.7211 11.9427 85.2628 11.6638C85.803 11.3857 86.4339 11.2069 87.0934 11.3273C88.6333 11.6083 89.2884 12.9349 89.518 14.2003C89.7497 15.4774 89.6401 17.0504 89.392 18.583C88.8939 21.6591 87.7625 24.9988 87.0426 26.4277C86.7832 26.9425 86.1604 27.1472 85.6515 26.8848C85.1425 26.6224 84.9402 25.9924 85.1995 25.4776C85.808 24.2698 86.8813 21.1421 87.3505 18.2447C87.5859 16.7906 87.6506 15.5002 87.4833 14.5782C87.3139 13.6444 86.9962 13.436 86.7261 13.3867C86.6615 13.3749 86.5004 13.3747 86.2011 13.5288C85.9034 13.6821 85.5421 13.9516 85.126 14.3532C84.2944 15.1561 83.3769 16.3559 82.4556 17.7676C80.6192 20.5818 78.8855 24.0548 77.9173 26.3615C77.7024 26.8734 77.129 27.1259 76.6122 26.9362C76.0954 26.7464 75.8156 26.1807 75.9754 25.6485C77.0025 22.2287 77.4751 18.8956 77.6896 16.4109C77.7967 15.1707 77.839 14.1471 77.8547 13.4365C77.8625 13.0814 77.8635 12.8048 77.8627 12.6188C77.8624 12.5259 77.8616 12.4555 77.8609 12.4094C77.8605 12.3864 77.8602 12.3692 77.8599 12.3585C77.8598 12.3531 77.8597 12.3492 77.8596 12.347C77.8596 12.346 77.8595 12.3453 77.8595 12.3449V12.2913C77.8721 11.7379 78.3119 11.2859 78.8651 11.2705Z" fill="#FFDA0A"/>
<path fill-rule="evenodd" clip-rule="evenodd" d="M69.8336 12.0276C70.8524 11.3632 72.1718 10.9858 73.3785 11.7646C73.9103 12.1078 74.2976 12.5774 74.5126 13.1476C74.7227 13.7049 74.7447 14.2947 74.659 14.8603C74.4912 15.968 73.8874 17.1436 73.0964 18.2458C71.6469 20.2657 69.3447 22.3472 66.8871 23.7743C67.0844 24.2397 67.3853 24.5484 67.7802 24.7294C68.3084 24.9715 69.0744 25.0324 70.1116 24.4702C71.1793 23.8914 72.5129 22.6561 74.0122 20.3355C74.3247 19.8519 74.9657 19.7159 75.4439 20.032C75.9221 20.3481 76.0563 20.9965 75.7438 21.4802C74.1414 23.9604 72.5762 25.5084 71.0888 26.3147C69.5709 27.1375 68.1253 27.185 66.9262 26.6353C65.5628 26.0103 64.8826 24.7735 64.6508 23.434C64.421 22.1058 64.638 20.5968 65.0762 19.1662C65.5188 17.7211 66.2132 16.2706 67.0282 15.027C67.8352 13.7955 68.8056 12.698 69.8336 12.0276ZM72.2658 13.5286C72.0467 13.3872 71.6636 13.3239 70.9547 13.7862C70.255 14.2425 69.4724 15.0844 68.7523 16.1831C68.0403 17.2696 67.4336 18.5404 67.0523 19.7854C66.8737 20.3683 66.75 20.9279 66.6836 21.4478C68.5798 20.2023 70.3102 18.5661 71.4223 17.0166C72.1278 16.0334 72.5183 15.1766 72.6142 14.5434C72.6604 14.2387 72.6316 14.0308 72.5797 13.8931C72.5327 13.7684 72.4468 13.6454 72.2658 13.5286Z" fill="#FFDA0A"/>
<path fill-rule="evenodd" clip-rule="evenodd" d="M104.512 3.12401C105.171 2.53497 106.051 2.07613 107.045 2.31761C108.225 2.60396 108.761 3.59803 108.929 4.60241C109.091 5.57986 108.963 6.7779 108.676 8.03235C108.096 10.5686 106.776 13.7267 105.101 16.7026C103.863 18.9006 102.403 21.0481 100.858 22.8031C100.897 23.152 100.951 23.4644 101.021 23.7369C101.199 24.4319 101.427 24.685 101.548 24.7589C101.763 24.8902 102.059 24.9487 102.488 24.8732C102.927 24.7961 103.44 24.5885 103.99 24.2729C105.091 23.6411 106.149 22.6893 106.761 22.0205C107.149 21.5965 107.804 21.571 108.223 21.9636C108.642 22.3562 108.667 23.0182 108.279 23.4421C107.565 24.222 106.344 25.3275 105.01 26.0929C104.343 26.4758 103.599 26.8019 102.842 26.9348C102.076 27.0693 101.237 27.0142 100.478 26.5498C99.763 26.1129 99.3514 25.3587 99.1078 24.5774C97.0524 26.4064 94.5557 27.6894 92.233 26.5687C91.2308 26.0851 90.6597 25.1763 90.3892 24.1863C90.1221 23.209 90.1223 22.0821 90.2933 20.9596C90.6348 18.7178 91.7009 16.2163 93.2257 14.4031C94.0298 13.4469 94.9439 12.6843 95.8661 12.1684C96.7751 11.6599 97.7611 11.3535 98.6879 11.4189C99.2442 11.4582 99.7711 11.6344 100.214 11.9592C100.888 9.56755 101.749 7.28606 102.701 5.56175C103.242 4.58221 103.847 3.71877 104.512 3.12401ZM98.544 13.5064C98.1457 13.4783 97.5623 13.6108 96.8674 13.9996C96.1857 14.3809 95.4612 14.9743 94.8015 15.7589C93.5411 17.2576 92.625 19.3935 92.3379 21.2782C92.1946 22.2189 92.2189 23.0277 92.3831 23.6287C92.5439 24.217 92.8114 24.5293 93.1236 24.68C94.2297 25.2137 95.8134 24.7476 97.8164 22.9397C98.1208 22.665 98.4258 22.3667 98.7302 22.048C98.7179 21.7216 98.7151 21.3859 98.7212 21.0438C98.7496 19.4353 98.9701 17.5928 99.3279 15.7155C99.4728 14.7624 99.3598 14.2057 99.213 13.9173C99.0847 13.6654 98.8911 13.531 98.544 13.5064ZM106.563 4.35231C106.508 4.339 106.303 4.31532 105.882 4.69185C105.467 5.06267 104.997 5.69512 104.507 6.58225C103.534 8.34356 102.62 10.8591 101.938 13.5206C101.72 14.3728 101.527 15.2323 101.365 16.0784C101.347 16.1954 101.326 16.3139 101.303 16.4337C101.298 16.4588 101.292 16.4834 101.286 16.5077C101.102 17.525 100.965 18.5176 100.881 19.449C101.737 18.2788 102.556 16.9936 103.303 15.6671C104.915 12.8041 106.139 9.83901 106.66 7.56093C106.924 6.40831 106.985 5.52625 106.889 4.95012C106.797 4.40129 106.626 4.36779 106.563 4.35231Z" fill="#FFDA0A"/>
</svg>
