<svg width="16" height="15" viewBox="0 0 16 15" fill="none" xmlns="http://www.w3.org/2000/svg">
<path fill-rule="evenodd" clip-rule="evenodd" d="M15.0265 0.337969C14.5774 -0.112657 13.8477 -0.112656 13.3986 0.33797L7.95705 5.79868L2.60538 0.428203C2.15633 -0.0224236 1.4266 -0.0224236 0.977553 0.428203C0.530726 0.876599 0.530726 1.60193 0.977553 2.05033L6.33492 7.42651L0.83512 12.9456C0.388293 13.394 0.388293 14.1194 0.83512 14.5678C1.28417 15.0184 2.0139 15.0184 2.46294 14.5678L7.95705 9.05435L13.5411 14.658C13.9901 15.1086 14.7199 15.1086 15.1689 14.658C15.6157 14.2096 15.6157 13.4843 15.1689 13.0359L9.57919 7.42651L15.0265 1.96009C15.4733 1.5117 15.4733 0.786366 15.0265 0.337969Z" fill="white"/>
</svg>
