<svg width="300" height="300" viewBox="0 0 300 300" fill="none" xmlns="http://www.w3.org/2000/svg">
<g opacity="0.25">
<path d="M46.9628 70.792C41.0371 57.8444 46.7507 42.4904 59.6982 36.5626C62.1962 35.4207 64.8128 34.699 67.5021 34.4016C64.4217 28.1285 58.4648 23.7773 51.6156 22.6167C38.9759 28.9771 30.8621 41.0241 28.9756 54.2358L118.629 250.136C121.58 256.582 127.654 261.118 134.632 262.358L46.9628 70.792Z" fill="white"/>
</g>
<g opacity="0.25">
<path d="M161.259 196.433L228.593 49.3048C232.36 41.0766 240.238 35.4837 249.174 34.4395C247.054 30.0779 243.469 26.3985 238.724 24.225C236.987 23.4305 235.178 22.9084 233.327 22.6006C225.045 26.7313 218.058 33.5743 213.929 42.5949L161.259 157.684L157.543 149.559L148.676 168.934L161.259 196.433Z" fill="white"/>
</g>
<g opacity="0.25">
<path d="M270.446 22.3965C274.748 30.5519 276.591 39.9261 275.507 49.2796C278.537 55.8812 278.81 63.7039 275.559 70.811L185.311 268.011C181.226 276.934 172.153 282.822 162.197 283.014C162.197 283.014 161.448 283.034 161.263 283.036C161.078 283.034 160.331 283.014 160.331 283.014C159.776 283.003 159.22 282.966 158.671 282.922C152.964 285.545 146.697 287.045 140.218 287.169C139.848 287.186 139.394 287.192 138.941 287.196H138.86C138.406 287.192 137.953 287.186 137.497 287.167C135.195 287.124 132.92 286.897 130.684 286.514C138.431 294.407 149.043 298.925 160.025 299.135C160.439 299.152 160.851 299.156 161.263 299.16C161.677 299.156 162.088 299.152 162.502 299.135C178.143 298.836 193.059 289.83 199.974 274.719L290.22 77.5208C299.678 56.8567 290.763 32.3053 270.446 22.3965Z" fill="white"/>
</g>
<path d="M253.192 54.6747L162.944 251.875C158.859 260.8 149.788 266.686 139.83 266.875C139.83 266.875 139.083 266.896 138.898 266.898C138.711 266.896 137.966 266.875 137.966 266.875C128.007 266.686 118.935 260.8 114.85 251.875L24.6015 54.6747C18.6779 41.7271 24.3915 26.3731 37.3369 20.4453C40.7023 18.9061 44.2777 18.1261 47.9612 18.1261C58.1133 18.1261 67.3773 24.0352 71.5642 33.1828L138.898 180.309L206.229 33.1828C210.416 24.0373 219.682 18.1261 229.834 18.1261C233.518 18.1261 237.091 18.9061 240.457 20.4453C253.404 26.3731 259.118 41.7271 253.192 54.6747ZM247.168 5.78385C226.188 -3.8171 201.169 5.49266 191.568 26.4708L138.898 141.562L86.2277 26.4708C76.6247 5.49266 51.6073 -3.8171 30.6271 5.78385C9.64892 15.3848 0.339148 40.4043 9.9401 61.3845L100.188 258.585C107.102 273.693 122.019 282.699 137.658 282.999C138.072 283.016 138.484 283.02 138.898 283.024C139.312 283.02 139.721 283.016 140.135 282.999C155.776 282.699 170.692 273.693 177.607 258.585L267.855 61.3845C277.456 40.4043 268.147 15.3848 247.168 5.78385Z" fill="#FFEC37"/>
</svg>
